<svg version="1.1" id="Layer_1" xmlns="http://www.w3.org/2000/svg" xmlns:xlink="http://www.w3.org/1999/xlink" x="0px" y="0px"
	 width="100%" viewBox="0 0 2000 1500" enable-background="new 0 0 2000 1500" xml:space="preserve">
<path fill="#051726" opacity="1.000000" stroke="none" 
	d="
M1833.000000,1501.000000 
	C1222.000122,1501.000000 611.500366,1501.000000 1.000409,1501.000000 
	C1.000273,1001.000305 1.000273,501.000671 1.000136,1.000745 
	C667.666138,1.000497 1334.332275,1.000497 2000.998779,1.000248 
	C2000.999268,500.999298 2000.999268,1000.998596 2000.999634,1500.999023 
	C1945.166626,1501.000000 1889.333374,1501.000000 1833.000000,1501.000000 
M1089.945679,861.572205 
	C1034.798340,870.447937 979.650940,879.323608 924.466187,888.205322 
	C925.784363,900.354126 927.130554,912.064758 928.313049,923.791809 
	C931.743958,957.816406 933.567871,991.948181 931.191711,1026.076538 
	C928.741394,1061.271118 925.621155,1096.442017 921.747070,1131.507690 
	C918.363831,1162.129639 912.056885,1192.264282 900.838684,1221.122192 
	C897.373169,1230.037231 893.102844,1238.639282 889.264587,1247.242188 
	C891.215637,1250.801270 893.916077,1251.606201 897.691101,1250.429199 
	C901.327148,1249.295532 905.152344,1248.774170 908.886963,1247.950073 
	C949.295044,1239.032471 989.459412,1229.327759 1028.769287,1216.126099 
	C1054.645508,1207.435791 1073.825562,1193.379761 1083.357300,1166.304810 
	C1099.820679,1119.540527 1107.499756,1071.286255 1110.800537,1022.204712 
	C1113.859253,976.722656 1112.391479,931.317749 1104.955566,886.226013 
	C1103.509766,877.458069 1102.189819,868.669434 1100.801880,859.827637 
	C1097.040405,860.406189 1093.917969,860.886475 1089.945679,861.572205 
M919.870667,648.370422 
	C918.296021,673.762024 916.721313,699.153625 915.135010,724.733215 
	C976.789734,724.733215 1039.210205,724.733215 1101.740723,724.733215 
	C1098.302734,668.021729 1098.922974,611.504211 1101.850586,555.154663 
	C1039.553955,555.154663 977.679871,555.154663 916.852600,555.154663 
	C917.867493,586.150757 918.870178,616.774780 919.870667,648.370422 
z"/>
<path fill="#FEFFFF" opacity="1.000000" stroke="none" 
	d="
M1090.370605,861.469482 
	C1093.917969,860.886475 1097.040405,860.406189 1100.801880,859.827637 
	C1102.189819,868.669434 1103.509766,877.458069 1104.955566,886.226013 
	C1112.391479,931.317749 1113.859253,976.722656 1110.800537,1022.204712 
	C1107.499756,1071.286255 1099.820679,1119.540527 1083.357300,1166.304810 
	C1073.825562,1193.379761 1054.645508,1207.435791 1028.769287,1216.126099 
	C989.459412,1229.327759 949.295044,1239.032471 908.886963,1247.950073 
	C905.152344,1248.774170 901.327148,1249.295532 897.691101,1250.429199 
	C893.916077,1251.606201 891.215637,1250.801270 889.264587,1247.242188 
	C893.102844,1238.639282 897.373169,1230.037231 900.838684,1221.122192 
	C912.056885,1192.264282 918.363831,1162.129639 921.747070,1131.507690 
	C925.621155,1096.442017 928.741394,1061.271118 931.191711,1026.076538 
	C933.567871,991.948181 931.743958,957.816406 928.313049,923.791809 
	C927.130554,912.064758 925.784363,900.354126 924.466187,888.205322 
	C979.650940,879.323608 1034.798340,870.447937 1090.370605,861.469482 
z"/>
<path fill="#FFFFFF" opacity="1.000000" stroke="none" 
	d="
M919.871826,647.884583 
	C918.870178,616.774780 917.867493,586.150757 916.852600,555.154663 
	C977.679871,555.154663 1039.553955,555.154663 1101.850586,555.154663 
	C1098.922974,611.504211 1098.302734,668.021729 1101.740723,724.733215 
	C1039.210205,724.733215 976.789734,724.733215 915.135010,724.733215 
	C916.721313,699.153625 918.296021,673.762024 919.871826,647.884583 
z"/>
</svg>