<svg version="1.1" id="Layer_1" xmlns="http://www.w3.org/2000/svg" xmlns:xlink="http://www.w3.org/1999/xlink" x="0px" y="0px"
	 width="100%" viewBox="0 0 640 642" enable-background="new 0 0 640 642" xml:space="preserve">
<path fill="#000000" opacity="1.000000" stroke="none" 
	d="
M356.000000,643.000000 
	C237.333359,643.000000 119.166710,643.000000 1.000048,643.000000 
	C1.000032,429.000061 1.000032,215.000122 1.000016,1.000134 
	C214.333237,1.000089 427.666473,1.000089 640.999756,1.000045 
	C640.999878,214.999863 640.999878,428.999725 640.999939,642.999756 
	C546.166687,643.000000 451.333344,643.000000 356.000000,643.000000 
M358.695709,306.539886 
	C359.013550,306.550842 359.331360,306.561798 359.649200,306.572754 
	C359.353180,306.703735 359.057159,306.834717 359.213104,307.154968 
	C358.923859,307.320221 358.634613,307.485443 358.345398,307.650696 
	C358.519012,307.409698 358.692627,307.168732 358.695709,306.539886 
M349.762024,279.311249 
	C351.175018,273.877747 352.588043,268.444275 353.637054,263.091675 
	C353.583221,262.853271 353.529358,262.614868 353.475525,262.376465 
	C353.607788,262.348328 353.850006,262.281464 353.855774,262.297852 
	C353.935577,262.524384 353.982910,262.762390 355.278687,262.968994 
	C357.474335,268.387695 354.623444,277.586334 350.021637,280.080017 
	C350.021637,280.080017 350.006073,279.981415 349.762024,279.311249 
M255.031387,273.789764 
	C253.911667,274.840485 252.417343,275.694733 251.743454,276.979340 
	C249.824982,280.636444 248.198471,284.450348 246.538055,288.238068 
	C245.110596,291.494354 241.154572,293.514954 237.907822,292.082642 
	C237.719559,288.258240 236.336655,283.994690 237.552826,280.686584 
	C242.440033,267.392975 252.086945,258.458710 265.481445,253.871201 
	C268.667542,252.779984 272.244171,252.829086 275.641205,252.353683 
	C270.224365,253.363464 264.706726,254.094406 259.864532,256.304901 
	C247.715195,261.851105 242.359467,273.186646 237.678925,284.721436 
	C236.797028,286.894836 235.686890,290.107727 239.945343,292.307037 
	C239.128723,297.783112 238.312103,303.259186 237.480118,308.838226 
	C231.957565,306.942780 230.780716,300.143494 235.262558,295.413849 
	C235.999893,298.614807 236.410538,301.878326 236.372894,305.136658 
	C236.238022,316.812439 243.829208,322.154846 254.316940,317.136047 
	C269.477631,309.880981 276.824249,297.332703 277.467316,280.707214 
	C277.583252,277.710052 277.483795,274.704529 277.483795,271.702881 
	C273.499603,277.466492 276.006714,284.696930 272.250000,290.151886 
	C271.600220,290.036987 270.950439,289.922058 270.300659,289.807159 
	C271.023071,283.687714 271.745453,277.568268 272.467834,271.448822 
	C271.907928,273.596130 271.694153,275.823303 271.542389,278.054688 
	C270.609863,291.764923 265.356445,303.048462 253.291275,310.476074 
	C247.628616,313.962189 244.504959,312.708527 243.531036,306.267914 
	C242.064621,296.570221 246.147217,288.065460 250.019257,279.637909 
	C251.142471,277.193237 253.285507,275.217194 254.955826,272.917664 
	C254.955826,272.917664 254.892822,273.011383 255.031387,273.789764 
M219.001968,275.818481 
	C218.881424,275.688690 218.760864,275.558868 217.738098,275.207184 
	C218.137375,273.303772 218.536652,271.400360 218.935928,269.496918 
	C217.611923,272.534698 215.467194,275.305725 213.068069,277.835449 
	C212.475021,278.460785 210.845551,278.755127 210.067657,278.393860 
	C209.013885,277.904480 207.639450,276.648193 207.622910,275.699585 
	C207.592590,273.961731 208.455536,272.208313 208.946014,270.461365 
	C209.375092,270.545197 209.804184,270.629028 210.233261,270.712830 
	C210.233261,271.726532 210.592957,272.925476 210.180283,273.726624 
	C201.393387,290.784851 194.829391,309.080566 182.648331,324.250488 
	C179.662491,327.968964 176.131409,331.426025 172.290390,334.237396 
	C167.337723,337.862396 163.515076,336.355408 162.774368,330.286560 
	C161.393250,318.970764 164.016800,308.375641 170.702682,298.994904 
	C172.457367,296.532959 174.541504,294.344208 171.456909,291.478577 
	C171.315613,291.347290 171.502060,290.863190 171.560699,290.308411 
	C172.752655,290.308411 173.964966,290.308411 176.135849,290.308411 
	C175.079285,287.049225 174.183792,284.286926 172.930557,280.421051 
	C169.186371,283.585785 166.006546,285.548462 163.775040,288.284546 
	C153.822922,300.486969 149.608826,314.646790 151.086166,330.269867 
	C151.765411,337.452911 154.400482,344.376312 161.889236,346.909058 
	C171.489182,350.155823 181.008881,350.011383 188.572586,341.724213 
	C191.481400,338.537201 194.478592,335.326111 196.785126,331.711029 
	C212.181427,307.579895 222.702499,281.139618 232.810745,254.530472 
	C234.819595,249.242279 236.662827,247.913635 242.226318,249.169098 
	C249.481262,250.806229 250.849716,250.164978 254.914368,244.003784 
	C256.726196,241.257462 255.648651,239.835571 252.981873,239.527359 
	C243.388184,238.418610 234.066696,239.891769 225.027527,243.157166 
	C221.660583,244.373474 218.392700,245.864075 215.079651,247.229599 
	C214.975769,246.587509 214.871902,245.945404 214.768021,245.303314 
	C220.854156,245.303314 226.942490,245.238464 233.021713,245.443634 
	C233.444260,245.457901 234.375244,247.660812 234.097382,248.537872 
	C230.908386,258.603973 228.860687,269.321838 219.001968,275.818481 
M351.559265,347.803619 
	C355.539734,348.399078 359.520203,348.994537 363.576111,349.601288 
	C363.992462,340.987823 363.946259,340.868469 369.955078,338.542053 
	C382.360626,333.739075 391.807800,325.517700 398.965881,314.388123 
	C399.987976,312.798950 402.193573,311.079651 403.914215,311.011780 
	C407.813904,310.857971 411.752777,311.696564 415.917419,312.158447 
	C416.071503,317.832458 412.724152,320.900665 409.988464,324.362122 
	C409.093018,325.495117 408.526703,327.334229 408.742493,328.703400 
	C408.844025,329.347504 411.135345,329.944000 412.465637,330.020966 
	C414.097595,330.115479 415.764832,329.660980 417.412415,329.414276 
	C434.510651,326.853973 451.667236,326.320709 469.848785,327.121765 
	C468.027252,324.882996 466.205750,322.644257 463.845673,319.743561 
	C463.843536,319.751526 464.140503,318.635559 464.653687,316.706970 
	C452.456970,316.706970 440.815186,316.706970 428.546112,316.706970 
	C430.927521,309.682556 432.788300,303.484863 435.147766,297.483185 
	C436.721161,293.480957 439.558685,290.751312 444.372437,290.334747 
	C448.744843,289.956360 453.053619,288.843079 456.464417,288.222321 
	C454.172394,287.664459 451.161316,286.931580 448.150238,286.198700 
	C448.224457,285.537567 448.298676,284.876434 448.372925,284.215332 
	C449.999176,283.889954 451.625427,283.564575 453.251709,283.239227 
	C453.219635,283.630981 453.187531,284.022766 453.155457,284.414520 
	C450.506317,283.958618 447.857147,283.502716 445.208008,283.046814 
	C445.870972,279.945892 446.098541,276.660461 447.313477,273.793427 
	C448.659180,270.617706 450.542694,267.486389 452.875397,264.968964 
	C454.831451,262.857971 457.585602,260.838409 460.312225,260.223755 
	C466.103363,258.918243 472.106567,258.553741 478.248993,257.774780 
	C478.108521,257.073914 477.793884,256.419464 477.899231,255.841599 
	C478.129761,254.577209 478.580048,253.353439 478.912811,252.105682 
	C478.931854,252.034225 478.701843,251.896332 478.161285,251.389481 
	C474.759979,251.389481 470.930389,251.304306 467.106354,251.413406 
	C463.273804,251.522736 462.011963,250.265762 464.226318,246.726639 
	C464.712036,245.950394 465.040741,245.075943 465.649841,243.816452 
	C459.838684,243.171005 454.302094,243.272644 451.347870,248.117233 
	C448.307831,253.102585 444.330170,255.104156 438.984589,256.137268 
	C431.733398,257.538727 430.503357,259.241089 429.718231,266.891846 
	C431.068787,266.509125 432.301758,265.957611 433.571198,265.854248 
	C434.971466,265.740265 436.405243,266.037598 437.824402,266.155762 
	C437.670685,267.704742 437.965118,269.490601 437.291565,270.764771 
	C432.400024,280.018097 427.150665,289.084808 422.375946,298.395966 
	C420.687195,301.689209 418.757538,302.920258 415.034882,302.848145 
	C410.824005,302.766602 406.599457,303.743195 402.368835,304.127319 
	C401.031342,304.248718 399.655243,303.944672 398.296814,303.835358 
	C401.410065,302.525757 402.871765,303.293701 401.735565,306.600647 
	C400.000641,311.650238 394.408630,312.839508 387.429321,309.341309 
	C388.032928,308.272095 388.627716,307.218536 390.103821,304.603912 
	C382.874023,306.551025 376.780792,307.949768 370.862244,309.883240 
	C367.667786,310.926788 365.007416,316.790619 366.904816,318.295959 
	C368.270874,319.379761 371.478638,318.636230 373.690063,318.049133 
	C377.359589,317.074921 380.888489,315.571106 384.476654,314.290375 
	C384.900238,314.943726 385.323792,315.597046 385.747375,316.250397 
	C384.396210,317.767792 383.219421,319.508026 381.645172,320.740417 
	C380.045929,321.992340 378.030518,322.701141 376.239624,323.721863 
	C371.366882,326.499023 366.638550,329.563171 361.617798,332.036102 
	C357.732574,333.949799 354.070953,332.120911 352.903931,328.296204 
	C352.831970,328.060455 353.250458,327.674988 353.440796,327.359192 
	C353.684631,327.422577 353.928497,327.485962 354.172363,327.549347 
	C354.012573,328.860931 353.852814,330.172516 353.706177,331.376251 
	C350.069427,331.876770 348.621002,330.690857 347.882538,327.366821 
	C345.430847,316.331177 351.017670,301.450592 360.275787,295.454285 
	C360.393188,295.378235 360.602936,295.444794 361.684845,295.444794 
	C361.566681,297.694977 361.451019,299.897339 361.335358,302.099731 
	C360.820099,301.923279 360.304810,301.746826 359.789551,301.570404 
	C363.246582,295.936493 366.395477,290.082794 370.224792,284.714478 
	C378.172028,273.573273 389.103638,265.566956 400.196960,257.916107 
	C402.110260,256.596558 405.787506,256.642029 408.060120,257.543701 
	C409.181641,257.988708 409.709137,262.005219 409.206390,264.092804 
	C407.479340,271.264069 403.464172,276.910645 396.749908,280.512726 
	C395.534576,281.164734 394.944824,282.982788 394.066254,284.262543 
	C395.583527,285.045380 397.021027,286.151642 398.633270,286.549316 
	C403.137451,287.660065 407.163544,286.264923 409.457916,282.336975 
	C412.019440,277.951691 414.429230,273.278564 415.776184,268.417908 
	C421.291840,248.514023 409.201385,245.894974 395.658600,249.322342 
	C379.186523,253.491074 367.286377,264.545013 357.191315,277.062225 
	C345.064056,292.099274 337.372742,309.295593 340.627380,330.017273 
	C333.961823,327.653320 326.760620,328.056122 322.492950,321.588959 
	C321.688232,320.369537 319.808014,319.895233 318.521973,318.944702 
	C317.763367,318.383972 316.598755,317.528412 316.637085,316.864349 
	C317.013275,310.348206 313.685944,305.522675 309.725250,300.938843 
	C302.162109,302.002625 288.468109,297.893127 286.536560,294.150421 
	C288.468109,295.509033 290.555878,296.977539 293.067963,298.744476 
	C291.226257,303.776917 289.466675,308.887054 287.492828,313.913055 
	C283.849854,323.189209 285.020416,327.414856 293.484009,331.100311 
	C293.892975,329.478027 294.257141,327.887909 294.695801,326.318665 
	C296.440247,320.078064 298.075653,313.801270 300.062592,307.638245 
	C300.542999,306.148163 302.213501,305.041840 303.336731,303.759033 
	C304.476562,304.975372 306.417084,306.069489 306.624512,307.428192 
	C307.847443,315.438446 313.817627,320.723999 318.374969,326.303009 
	C326.746307,336.551056 337.798096,343.811310 351.559265,347.803619 
M291.326752,384.399384 
	C291.326752,386.837769 291.326752,389.276184 291.326752,392.044098 
	C295.019745,392.044098 298.147125,392.104462 301.271423,392.031219 
	C307.321564,391.889435 311.731995,387.716827 312.014954,381.957947 
	C312.319641,375.756195 308.538513,370.857697 302.421661,370.162537 
	C298.888062,369.760895 295.271484,370.089600 291.326752,370.089600 
	C291.326752,374.867523 291.326752,379.150085 291.326752,384.399384 
M330.066223,383.027435 
	C332.928040,383.259705 335.232544,383.012146 333.340027,378.926971 
	C330.083557,378.926971 326.790619,378.926971 323.393066,378.926971 
	C323.393066,377.149597 323.393066,375.638489 323.393066,374.153198 
	C335.101959,373.527496 335.101959,373.527496 334.567444,370.246887 
	C329.443512,370.246887 324.346680,370.246887 319.214172,370.246887 
	C319.214172,377.591431 319.214172,384.659454 319.214172,391.709106 
	C324.857605,391.709106 330.234009,391.709106 336.675262,391.709106 
	C332.817505,386.328156 327.546204,390.178711 323.640015,387.937378 
	C323.640015,386.559143 323.640015,385.008881 323.640015,383.027466 
	C325.552002,383.027466 327.353638,383.027466 330.066223,383.027435 
M360.020813,375.946655 
	C360.701965,374.130005 361.383087,372.313354 362.064240,370.496674 
	C361.458740,370.121490 360.853241,369.746307 360.247772,369.371094 
	C354.362488,372.917786 355.352386,381.037201 351.157654,386.300568 
	C349.370667,381.648132 347.563477,377.247101 345.999969,372.761169 
	C345.024414,369.962219 343.516815,369.201355 340.682617,370.620667 
	C343.221527,377.084198 345.614075,383.446075 348.278595,389.691864 
	C348.723297,390.734314 350.362854,391.889984 351.427368,391.868317 
	C352.472595,391.847046 353.941833,390.602112 354.437531,389.530090 
	C356.385406,385.317291 358.022675,380.960907 360.020813,375.946655 
M315.908783,266.655914 
	C316.087250,265.921234 316.265717,265.186554 316.444183,264.451874 
	C314.185425,265.234589 312.321381,266.393372 311.299347,268.066498 
	C307.611176,274.104462 304.180786,280.301270 300.739044,286.485962 
	C300.435059,287.032257 300.499237,288.117584 300.861206,288.602844 
	C301.197449,289.053619 302.352203,289.399780 302.812286,289.157410 
	C304.198578,288.427124 305.981598,287.671112 306.614716,286.421112 
	C309.811340,280.109680 312.691986,273.638214 315.908783,266.655914 
M341.079773,257.230652 
	C332.479767,255.013397 323.900726,253.065155 315.071350,259.547058 
	C324.841156,253.873932 334.015076,256.477264 342.816681,258.041595 
	C342.642181,257.953247 342.126617,257.692200 341.079773,257.230652 
M209.058197,249.988556 
	C209.923187,249.824982 210.788162,249.661407 212.288101,249.377747 
	C208.207947,249.612015 204.770264,249.957062 201.336655,249.920364 
	C200.247070,249.908691 199.168350,248.879608 198.084656,248.316132 
	C198.708145,247.359238 199.160019,246.203156 199.991058,245.487152 
	C201.690414,244.023041 203.593567,242.795441 205.412781,241.470444 
	C204.999634,241.188156 204.586472,240.905884 204.173325,240.623611 
	C201.830429,244.243652 199.487534,247.863678 197.144653,251.483719 
	C197.534531,251.747269 197.924408,252.010834 198.314285,252.274384 
	C201.670013,251.507004 205.025726,250.739639 209.058197,249.988556 
M327.211792,249.499100 
	C330.397217,247.839142 333.582642,246.179169 336.768036,244.519196 
	C330.586212,242.664627 327.685242,246.898666 323.328766,250.235779 
	C325.009521,249.957642 325.799988,249.826828 327.211792,249.499100 
M334.300934,290.743744 
	C330.241394,292.578613 326.181854,294.413513 322.122314,296.248383 
	C322.379700,296.847107 322.637085,297.445801 322.894470,298.044525 
	C327.286804,296.218140 331.703064,294.444397 336.032288,292.478943 
	C336.437561,292.294952 336.293213,290.900330 336.404083,290.067841 
	C335.950195,290.262543 335.496338,290.457275 334.300934,290.743744 
M223.037750,259.049683 
	C223.037750,259.049683 222.996292,259.082855 223.037750,259.049683 
M356.808746,311.471710 
	C357.099823,311.229736 357.390930,310.987793 357.682037,310.745850 
	C357.810913,311.119293 357.939758,311.492706 358.068604,311.866150 
	C357.705078,311.920410 357.341522,311.974701 356.808746,311.471710 
z"/>
<path fill="#28F5F8" opacity="1.000000" stroke="none" 
	d="
M351.183319,347.667725 
	C337.798096,343.811310 326.746307,336.551056 318.374969,326.303009 
	C313.817627,320.723999 307.847443,315.438446 306.624512,307.428192 
	C306.417084,306.069489 304.476562,304.975372 303.336731,303.759033 
	C302.213501,305.041840 300.542999,306.148163 300.062592,307.638245 
	C298.075653,313.801270 296.440247,320.078064 294.695801,326.318665 
	C294.257141,327.887909 293.892975,329.478027 293.484009,331.100311 
	C285.020416,327.414856 283.849854,323.189209 287.492828,313.913055 
	C289.466675,308.887054 291.226257,303.776917 293.067963,298.744476 
	C290.555878,296.977539 288.468109,295.509033 286.536560,294.150421 
	C288.468109,297.893127 302.162109,302.002625 309.725098,300.938904 
	C313.685944,305.522675 317.013275,310.348206 316.637085,316.864349 
	C316.598755,317.528412 317.763367,318.383972 318.521973,318.944702 
	C319.808014,319.895233 321.688232,320.369537 322.492950,321.588959 
	C326.760620,328.056122 333.961823,327.653320 340.627380,330.017273 
	C337.372742,309.295593 345.064056,292.099274 357.191315,277.062225 
	C367.286377,264.545013 379.186523,253.491074 395.658600,249.322342 
	C409.201385,245.894974 421.291840,248.514023 415.776184,268.417908 
	C414.429230,273.278564 412.019440,277.951691 409.457916,282.336975 
	C407.163544,286.264923 403.137451,287.660065 398.633270,286.549316 
	C397.021027,286.151642 395.583527,285.045380 394.066254,284.262543 
	C394.944824,282.982788 395.534576,281.164734 396.749908,280.512726 
	C403.464172,276.910645 407.479340,271.264069 409.206390,264.092804 
	C409.709137,262.005219 409.181641,257.988708 408.060120,257.543701 
	C405.787506,256.642029 402.110260,256.596558 400.196960,257.916107 
	C389.103638,265.566956 378.172028,273.573273 370.224792,284.714478 
	C366.395477,290.082794 363.246582,295.936493 359.789551,301.570404 
	C360.304810,301.746826 360.820099,301.923279 361.335358,302.099731 
	C361.451019,299.897339 361.566681,297.694977 361.684845,295.444794 
	C360.602936,295.444794 360.393188,295.378235 360.275787,295.454285 
	C351.017670,301.450592 345.430847,316.331177 347.882538,327.366821 
	C348.621002,330.690857 350.069427,331.876770 353.706177,331.376251 
	C353.852814,330.172516 354.012573,328.860931 354.172363,327.549347 
	C353.928497,327.485962 353.684631,327.422577 353.440796,327.359192 
	C353.250458,327.674988 352.831970,328.060455 352.903931,328.296204 
	C354.070953,332.120911 357.732574,333.949799 361.617798,332.036102 
	C366.638550,329.563171 371.366882,326.499023 376.239624,323.721863 
	C378.030518,322.701141 380.045929,321.992340 381.645172,320.740417 
	C383.219421,319.508026 384.396210,317.767792 385.747375,316.250397 
	C385.323792,315.597046 384.900238,314.943726 384.476654,314.290375 
	C380.888489,315.571106 377.359589,317.074921 373.690063,318.049133 
	C371.478638,318.636230 368.270874,319.379761 366.904816,318.295959 
	C365.007416,316.790619 367.667786,310.926788 370.862244,309.883240 
	C376.780792,307.949768 382.874023,306.551025 390.103821,304.603912 
	C388.627716,307.218536 388.032928,308.272095 387.429321,309.341309 
	C394.408630,312.839508 400.000641,311.650238 401.735565,306.600647 
	C402.871765,303.293701 401.410065,302.525757 398.296814,303.835358 
	C399.655243,303.944672 401.031342,304.248718 402.368835,304.127319 
	C406.599457,303.743195 410.824005,302.766602 415.034882,302.848145 
	C418.757538,302.920258 420.687195,301.689209 422.375946,298.395966 
	C427.150665,289.084808 432.400024,280.018097 437.291565,270.764771 
	C437.965118,269.490601 437.670685,267.704742 437.824402,266.155762 
	C436.405243,266.037598 434.971466,265.740265 433.571198,265.854248 
	C432.301758,265.957611 431.068787,266.509125 429.718231,266.891846 
	C430.503357,259.241089 431.733398,257.538727 438.984589,256.137268 
	C444.330170,255.104156 448.307831,253.102585 451.347870,248.117233 
	C454.302094,243.272644 459.838684,243.171005 465.649841,243.816452 
	C465.040741,245.075943 464.712036,245.950394 464.226318,246.726639 
	C462.011963,250.265762 463.273804,251.522736 467.106354,251.413406 
	C470.930389,251.304306 474.759979,251.389481 478.161285,251.389481 
	C478.701843,251.896332 478.931854,252.034225 478.912811,252.105682 
	C478.580048,253.353439 478.129761,254.577209 477.899231,255.841599 
	C477.793884,256.419464 478.108521,257.073914 478.248993,257.774780 
	C472.106567,258.553741 466.103363,258.918243 460.312225,260.223755 
	C457.585602,260.838409 454.831451,262.857971 452.875397,264.968964 
	C450.542694,267.486389 448.659180,270.617706 447.313477,273.793427 
	C446.098541,276.660461 445.870972,279.945892 445.208008,283.046814 
	C447.857147,283.502716 450.506317,283.958618 453.155457,284.414520 
	C453.187531,284.022766 453.219635,283.630981 453.251709,283.239227 
	C451.625427,283.564575 449.999176,283.889954 448.372925,284.215332 
	C448.298676,284.876434 448.224457,285.537567 448.150238,286.198700 
	C451.161316,286.931580 454.172394,287.664459 456.464417,288.222321 
	C453.053619,288.843079 448.744843,289.956360 444.372437,290.334747 
	C439.558685,290.751312 436.721161,293.480957 435.147766,297.483185 
	C432.788300,303.484863 430.927521,309.682556 428.546112,316.706970 
	C440.815186,316.706970 452.456970,316.706970 464.653687,316.706970 
	C464.140503,318.635559 463.843536,319.751526 463.845673,319.743561 
	C466.205750,322.644257 468.027252,324.882996 469.848785,327.121765 
	C451.667236,326.320709 434.510651,326.853973 417.412415,329.414276 
	C415.764832,329.660980 414.097595,330.115479 412.465637,330.020966 
	C411.135345,329.944000 408.844025,329.347504 408.742493,328.703400 
	C408.526703,327.334229 409.093018,325.495117 409.988464,324.362122 
	C412.724152,320.900665 416.071503,317.832458 415.917419,312.158447 
	C411.752777,311.696564 407.813904,310.857971 403.914215,311.011780 
	C402.193573,311.079651 399.987976,312.798950 398.965881,314.388123 
	C391.807800,325.517700 382.360626,333.739075 369.955078,338.542053 
	C363.946259,340.868469 363.992462,340.987823 363.576111,349.601288 
	C359.520203,348.994537 355.539734,348.399078 351.183319,347.667725 
M287.459991,325.093903 
	C290.950684,326.884918 293.738312,325.831299 294.923553,322.134979 
	C296.733795,316.489532 298.650909,310.862640 300.062439,305.114868 
	C300.471436,303.449463 299.306610,301.397552 298.863251,299.522766 
	C297.212524,300.515350 294.760529,301.116699 294.051361,302.569061 
	C291.154449,308.501801 288.736511,314.673370 286.299255,320.819305 
	C286.002655,321.567261 286.657410,322.692505 285.757965,323.719696 
	C285.973328,324.316803 286.188690,324.913879 286.404053,325.510986 
	C286.715454,325.043457 287.026855,324.575897 287.459991,325.093903 
M386.700897,308.990753 
	C386.186768,309.235779 385.672668,309.480804 385.158569,309.725861 
	C385.380859,310.057526 385.711548,310.701996 385.807404,310.668793 
	C386.328705,310.488098 386.792084,310.140320 386.700897,308.990753 
z"/>
<path fill="#28F5F8" opacity="1.000000" stroke="none" 
	d="
M219.457062,276.092987 
	C228.860687,269.321838 230.908386,258.603973 234.097382,248.537872 
	C234.375244,247.660812 233.444260,245.457901 233.021713,245.443634 
	C226.942490,245.238464 220.854156,245.303314 214.768021,245.303314 
	C214.871902,245.945404 214.975769,246.587509 215.079651,247.229599 
	C218.392700,245.864075 221.660583,244.373474 225.027527,243.157166 
	C234.066696,239.891769 243.388184,238.418610 252.981873,239.527359 
	C255.648651,239.835571 256.726196,241.257462 254.914368,244.003784 
	C250.849716,250.164978 249.481262,250.806229 242.226318,249.169098 
	C236.662827,247.913635 234.819595,249.242279 232.810745,254.530472 
	C222.702499,281.139618 212.181427,307.579895 196.785126,331.711029 
	C194.478592,335.326111 191.481400,338.537201 188.572586,341.724213 
	C181.008881,350.011383 171.489182,350.155823 161.889236,346.909058 
	C154.400482,344.376312 151.765411,337.452911 151.086166,330.269867 
	C149.608826,314.646790 153.822922,300.486969 163.775040,288.284546 
	C166.006546,285.548462 169.186371,283.585785 172.930557,280.421051 
	C174.183792,284.286926 175.079285,287.049225 176.135849,290.308411 
	C173.964966,290.308411 172.752655,290.308411 171.560699,290.308411 
	C171.502060,290.863190 171.315613,291.347290 171.456909,291.478577 
	C174.541504,294.344208 172.457367,296.532959 170.702682,298.994904 
	C164.016800,308.375641 161.393250,318.970764 162.774368,330.286560 
	C163.515076,336.355408 167.337723,337.862396 172.290390,334.237396 
	C176.131409,331.426025 179.662491,327.968964 182.648331,324.250488 
	C194.829391,309.080566 201.393387,290.784851 210.180283,273.726624 
	C210.592957,272.925476 210.233261,271.726532 210.233261,270.712830 
	C209.804184,270.629028 209.375092,270.545197 208.946014,270.461365 
	C208.455536,272.208313 207.592590,273.961731 207.622910,275.699585 
	C207.639450,276.648193 209.013885,277.904480 210.067657,278.393860 
	C210.845551,278.755127 212.475021,278.460785 213.068069,277.835449 
	C215.467194,275.305725 217.611923,272.534698 218.935928,269.496918 
	C218.536652,271.400360 218.137375,273.303772 217.672516,275.176727 
	C217.578583,276.229523 217.550232,277.312775 217.013336,278.304443 
	C216.439880,279.062469 216.374954,279.912048 215.896667,280.615662 
	C214.035187,282.578308 210.490326,284.156403 213.205399,287.297150 
	C210.688065,288.790680 209.217346,290.532471 212.060532,293.763458 
	C212.887970,291.494415 213.518448,289.765564 214.463074,287.892151 
	C215.562408,285.578430 216.347565,283.409302 217.469574,281.128418 
	C217.930283,280.356293 218.054108,279.695862 218.518005,278.915924 
	C219.057724,277.895264 219.257385,276.994141 219.457062,276.092987 
M211.000000,280.500000 
	C210.799988,280.366669 210.599991,280.233337 210.399994,280.100006 
	C210.433334,280.399994 210.466675,280.700012 211.000000,280.500000 
z"/>
<path fill="#28F5F8" opacity="1.000000" stroke="none" 
	d="
M238.963394,292.006409 
	C241.154572,293.514954 245.110596,291.494354 246.538055,288.238068 
	C248.198471,284.450348 249.824982,280.636444 251.743454,276.979340 
	C252.417343,275.694733 253.911667,274.840485 254.987793,273.378052 
	C254.944214,272.966370 254.961029,273.026306 254.961029,273.026306 
	C253.285507,275.217194 251.142471,277.193237 250.019257,279.637909 
	C246.147217,288.065460 242.064621,296.570221 243.531036,306.267914 
	C244.504959,312.708527 247.628616,313.962189 253.291275,310.476074 
	C265.356445,303.048462 270.609863,291.764923 271.542389,278.054688 
	C271.694153,275.823303 271.907928,273.596130 272.467834,271.448822 
	C271.745453,277.568268 271.023071,283.687714 270.300659,289.807159 
	C270.950439,289.922058 271.600220,290.036987 272.250000,290.151886 
	C276.006714,284.696930 273.499603,277.466492 277.483795,271.702881 
	C277.483795,274.704529 277.583252,277.710052 277.467316,280.707214 
	C276.824249,297.332703 269.477631,309.880981 254.316940,317.136047 
	C243.829208,322.154846 236.238022,316.812439 236.372894,305.136658 
	C236.410538,301.878326 235.999893,298.614807 235.262558,295.413849 
	C230.780716,300.143494 231.957565,306.942780 237.480118,308.838226 
	C238.312103,303.259186 239.128723,297.783112 239.453796,292.145203 
	C238.962250,291.983368 238.963394,292.006409 238.963394,292.006409 
M243.500000,292.000000 
	C243.366669,292.200012 243.233337,292.399994 243.100006,292.600006 
	C243.400009,292.566650 243.699997,292.533325 243.500000,292.000000 
z"/>
<path fill="#28F5F8" opacity="1.000000" stroke="none" 
	d="
M291.326752,383.916016 
	C291.326752,379.150085 291.326752,374.867523 291.326752,370.089600 
	C295.271484,370.089600 298.888062,369.760895 302.421661,370.162537 
	C308.538513,370.857697 312.319641,375.756195 312.014954,381.957947 
	C311.731995,387.716827 307.321564,391.889435 301.271423,392.031219 
	C298.147125,392.104462 295.019745,392.044098 291.326752,392.044098 
	C291.326752,389.276184 291.326752,386.837769 291.326752,383.916016 
M295.770569,385.187592 
	C296.171814,386.315125 296.747528,388.453186 296.948059,388.418549 
	C299.944397,387.901123 303.540375,387.869598 305.637634,386.107788 
	C307.224609,384.774658 307.999847,380.632812 307.100159,378.678101 
	C306.116974,376.542023 302.899536,375.262054 300.437408,374.054474 
	C299.276520,373.485077 297.604950,373.956879 295.770111,373.956879 
	C295.770111,377.697968 295.770111,380.978882 295.770569,385.187592 
z"/>
<path fill="#28F5F8" opacity="1.000000" stroke="none" 
	d="
M329.610748,383.027466 
	C327.353638,383.027466 325.552002,383.027466 323.640015,383.027466 
	C323.640015,385.008881 323.640015,386.559143 323.640015,387.937378 
	C327.546204,390.178711 332.817505,386.328156 336.675262,391.709106 
	C330.234009,391.709106 324.857605,391.709106 319.214172,391.709106 
	C319.214172,384.659454 319.214172,377.591431 319.214172,370.246887 
	C324.346680,370.246887 329.443512,370.246887 334.567444,370.246887 
	C335.101959,373.527496 335.101959,373.527496 323.393066,374.153198 
	C323.393066,375.638489 323.393066,377.149597 323.393066,378.926971 
	C326.790619,378.926971 330.083557,378.926971 333.340027,378.926971 
	C335.232544,383.012146 332.928040,383.259705 329.610748,383.027466 
z"/>
<path fill="#28F5F8" opacity="1.000000" stroke="none" 
	d="
M359.898010,376.302246 
	C358.022675,380.960907 356.385406,385.317291 354.437531,389.530090 
	C353.941833,390.602112 352.472595,391.847046 351.427368,391.868317 
	C350.362854,391.889984 348.723297,390.734314 348.278595,389.691864 
	C345.614075,383.446075 343.221527,377.084198 340.682617,370.620667 
	C343.516815,369.201355 345.024414,369.962219 345.999969,372.761169 
	C347.563477,377.247101 349.370667,381.648132 351.157654,386.300568 
	C355.352386,381.037201 354.362488,372.917786 360.247772,369.371094 
	C360.853241,369.746307 361.458740,370.121490 362.064240,370.496674 
	C361.383087,372.313354 360.701965,374.130005 359.898010,376.302246 
z"/>
<path fill="#28F5F8" opacity="1.000000" stroke="none" 
	d="
M238.979919,291.985901 
	C235.686890,290.107727 236.797028,286.894836 237.678925,284.721436 
	C242.359467,273.186646 247.715195,261.851105 259.864532,256.304901 
	C264.706726,254.094406 270.224365,253.363464 275.641205,252.353683 
	C272.244171,252.829086 268.667542,252.779984 265.481445,253.871201 
	C252.086945,258.458710 242.440033,267.392975 237.552826,280.686584 
	C236.336655,283.994690 237.719559,288.258240 238.435608,292.044525 
	C238.963394,292.006409 238.962250,291.983368 238.979919,291.985901 
z"/>
<path fill="#28F5F8" opacity="1.000000" stroke="none" 
	d="
M315.796143,266.939423 
	C312.691986,273.638214 309.811340,280.109680 306.614716,286.421112 
	C305.981598,287.671112 304.198578,288.427124 302.812286,289.157410 
	C302.352203,289.399780 301.197449,289.053619 300.861206,288.602844 
	C300.499237,288.117584 300.435059,287.032257 300.739044,286.485962 
	C304.180786,280.301270 307.611176,274.104462 311.299347,268.066498 
	C312.321381,266.393372 314.185425,265.234589 316.444183,264.451874 
	C316.265717,265.186554 316.087250,265.921234 315.796143,266.939423 
z"/>
<path fill="#28F5F8" opacity="1.000000" stroke="none" 
	d="
M341.345398,257.330902 
	C342.126617,257.692200 342.642181,257.953247 342.816681,258.041595 
	C334.015076,256.477264 324.841156,253.873932 315.071350,259.547058 
	C323.900726,253.065155 332.479767,255.013397 341.345398,257.330902 
z"/>
<path fill="#28F5F8" opacity="1.000000" stroke="none" 
	d="
M208.719818,249.980408 
	C205.025726,250.739639 201.670013,251.507004 198.314285,252.274384 
	C197.924408,252.010834 197.534531,251.747269 197.144653,251.483719 
	C199.487534,247.863678 201.830429,244.243652 204.173325,240.623611 
	C204.586472,240.905884 204.999634,241.188156 205.412781,241.470444 
	C203.593567,242.795441 201.690414,244.023041 199.991058,245.487152 
	C199.160019,246.203156 198.708145,247.359238 198.084656,248.316132 
	C199.168350,248.879608 200.247070,249.908691 201.336655,249.920364 
	C204.770264,249.957062 208.207947,249.612015 212.288101,249.377747 
	C210.788162,249.661407 209.923187,249.824982 208.719818,249.980408 
z"/>
<path fill="#28F5F8" opacity="1.000000" stroke="none" 
	d="
M326.901123,249.597565 
	C325.799988,249.826828 325.009521,249.957642 323.328766,250.235779 
	C327.685242,246.898666 330.586212,242.664627 336.768036,244.519196 
	C333.582642,246.179169 330.397217,247.839142 326.901123,249.597565 
z"/>
<path fill="#28F5F8" opacity="1.000000" stroke="none" 
	d="
M334.671692,290.697876 
	C335.496338,290.457275 335.950195,290.262543 336.404083,290.067841 
	C336.293213,290.900330 336.437561,292.294952 336.032288,292.478943 
	C331.703064,294.444397 327.286804,296.218140 322.894470,298.044525 
	C322.637085,297.445801 322.379700,296.847107 322.122314,296.248383 
	C326.181854,294.413513 330.241394,292.578613 334.671692,290.697876 
z"/>
<path fill="#28F5F8" opacity="1.000000" stroke="none" 
	d="
M354.001068,263.010773 
	C352.588043,268.444275 351.175018,273.877747 349.869263,279.659241 
	C349.976471,280.007263 350.006897,279.978790 350.006897,279.978790 
	C354.623444,277.586334 357.474335,268.387695 354.642242,262.977905 
	C354.005798,262.986847 354.001068,263.010773 354.001068,263.010773 
z"/>
<path fill="#28F5F8" opacity="1.000000" stroke="none" 
	d="
M223.017029,259.066284 
	C222.996292,259.082855 223.037750,259.049683 223.017029,259.066284 
z"/>
<path fill="#28F5F8" opacity="1.000000" stroke="none" 
	d="
M356.893372,311.750336 
	C357.341522,311.974701 357.705078,311.920410 358.068604,311.866150 
	C357.939758,311.492706 357.810913,311.119293 357.682037,310.745850 
	C357.390930,310.987793 357.099823,311.229736 356.893372,311.750336 
z"/>
<path fill="#28F5F8" opacity="1.000000" stroke="none" 
	d="
M358.761108,306.965698 
	C359.057159,306.834717 359.353180,306.703735 359.649200,306.572754 
	C359.331360,306.561798 359.013550,306.550842 358.755249,306.744873 
	C358.814789,306.949829 358.761108,306.965668 358.761108,306.965698 
z"/>
<path fill="#28F5F8" opacity="1.000000" stroke="none" 
	d="
M358.840515,306.938782 
	C358.692627,307.168732 358.519012,307.409698 358.345398,307.650696 
	C358.634613,307.485443 358.923859,307.320221 358.987122,307.060303 
	C358.761108,306.965668 358.814789,306.949829 358.840515,306.938782 
z"/>
<path fill="#28F5F8" opacity="1.000000" stroke="none" 
	d="
M354.022003,262.992188 
	C353.982910,262.762390 353.935577,262.524384 353.855774,262.297852 
	C353.850006,262.281464 353.607788,262.348328 353.475525,262.376465 
	C353.529358,262.614868 353.583221,262.853271 353.819061,263.051208 
	C354.001068,263.010773 354.005798,262.986847 354.022003,262.992188 
z"/>
<path fill="#28F5F8" opacity="1.000000" stroke="none" 
	d="
M254.918518,272.988892 
	C254.892822,273.011383 254.955826,272.917664 254.958435,272.971985 
	C254.961029,273.026306 254.944214,272.966370 254.918518,272.988892 
z"/>
<path fill="#28F5F8" opacity="1.000000" stroke="none" 
	d="
M349.991272,279.994324 
	C350.006073,279.981415 350.021637,280.080017 350.014282,280.029419 
	C350.006897,279.978790 349.976471,280.007263 349.991272,279.994324 
z"/>
<path fill="#000000" opacity="1.000000" stroke="none" 
	d="
M286.871277,323.642883 
	C286.657410,322.692505 286.002655,321.567261 286.299255,320.819305 
	C288.736511,314.673370 291.154449,308.501801 294.051361,302.569061 
	C294.760529,301.116699 297.212524,300.515350 298.863251,299.522766 
	C299.306610,301.397552 300.471436,303.449463 300.062439,305.114868 
	C298.650909,310.862640 296.733795,316.489532 294.923553,322.134979 
	C293.738312,325.831299 290.950684,326.884918 287.260193,324.507019 
	C287.060425,323.920105 286.871277,323.642883 286.871277,323.642883 
z"/>
<path fill="#000000" opacity="1.000000" stroke="none" 
	d="
M386.988159,309.420410 
	C386.792084,310.140320 386.328705,310.488098 385.807404,310.668793 
	C385.711548,310.701996 385.380859,310.057526 385.158569,309.725830 
	C385.672668,309.480804 386.186768,309.235779 386.988159,309.420410 
z"/>
<path fill="#000000" opacity="1.000000" stroke="none" 
	d="
M287.199341,324.014221 
	C287.026855,324.575897 286.715454,325.043457 286.404053,325.510986 
	C286.188690,324.913879 285.973328,324.316803 286.314636,323.681274 
	C286.871277,323.642883 287.060425,323.920105 287.199341,324.014221 
z"/>
<path fill="#000000" opacity="1.000000" stroke="none" 
	d="
M217.132721,281.240143 
	C216.347565,283.409302 215.562408,285.578430 214.336594,287.758636 
	C213.895935,287.769684 213.717468,287.448090 213.717468,287.448090 
	C210.490326,284.156403 214.035187,282.578308 216.117523,280.710876 
	C216.751724,280.952118 217.132721,281.240143 217.132721,281.240143 
z"/>
<path fill="#000000" opacity="1.000000" stroke="none" 
	d="
M214.022430,287.903198 
	C213.518448,289.765564 212.887970,291.494415 212.060532,293.763458 
	C209.217346,290.532471 210.688065,288.790680 213.205399,287.297150 
	C213.717468,287.448090 213.895935,287.769684 214.022430,287.903198 
z"/>
<path fill="#000000" opacity="1.000000" stroke="none" 
	d="
M219.229507,275.955750 
	C219.257385,276.994141 219.057724,277.895264 218.345642,278.764648 
	C217.833221,278.732849 217.521866,278.396027 217.521866,278.396027 
	C217.550232,277.312775 217.578583,276.229523 218.123627,275.287659 
	C218.760864,275.558868 218.881424,275.688690 219.229507,275.955750 
z"/>
<path fill="#000000" opacity="1.000000" stroke="none" 
	d="
M218.005585,278.884155 
	C218.054108,279.695862 217.930283,280.356293 217.469574,281.128418 
	C217.132721,281.240143 216.751724,280.952118 216.530884,280.856873 
	C216.374954,279.912048 216.439880,279.062469 217.013336,278.304443 
	C217.521866,278.396027 217.833221,278.732849 218.005585,278.884155 
z"/>
<path fill="#000000" opacity="1.000000" stroke="none" 
	d="
M210.750000,280.750000 
	C210.466675,280.700012 210.433334,280.399994 210.399994,280.100006 
	C210.599991,280.233337 210.799988,280.366669 210.750000,280.750000 
z"/>
<path fill="#000000" opacity="1.000000" stroke="none" 
	d="
M243.750000,292.250000 
	C243.699997,292.533325 243.400009,292.566650 243.100006,292.600006 
	C243.233337,292.399994 243.366669,292.200012 243.750000,292.250000 
z"/>
<path fill="#000000" opacity="1.000000" stroke="none" 
	d="
M295.770325,384.723694 
	C295.770111,380.978882 295.770111,377.697968 295.770111,373.956879 
	C297.604950,373.956879 299.276520,373.485077 300.437408,374.054474 
	C302.899536,375.262054 306.116974,376.542023 307.100159,378.678101 
	C307.999847,380.632812 307.224609,384.774658 305.637634,386.107788 
	C303.540375,387.869598 299.944397,387.901123 296.948059,388.418549 
	C296.747528,388.453186 296.171814,386.315125 295.770325,384.723694 
z"/>
</svg>